<?xml version="1.0" standalone="no"?>
<!DOCTYPE svg PUBLIC "-//W3C//DTD SVG 20010904//EN"
 "http://www.w3.org/TR/2001/REC-SVG-20010904/DTD/svg10.dtd">
<svg version="1.0" xmlns="http://www.w3.org/2000/svg"
 width="700.000000pt" height="700.000000pt" viewBox="0 0 700.000000 700.000000"
 preserveAspectRatio="xMidYMid meet">

<g transform="translate(0.000000,700.000000) scale(0.100000,-0.100000)"
fill="#000000" stroke="none">
<path d="M3410 5384 c-104 -28 -193 -109 -237 -215 -28 -69 -24 -189 9 -260
l26 -57 -67 -21 c-224 -73 -438 -228 -586 -426 -51 -68 -135 -231 -164 -320
-52 -160 -54 -177 -58 -726 l-5 -517 -52 -4 c-101 -8 -208 -85 -257 -185 -20
-40 -24 -64 -24 -143 0 -80 4 -102 24 -143 30 -62 97 -128 158 -159 47 -22 57
-23 378 -28 l330 -5 7 -65 c17 -174 127 -341 283 -431 167 -97 382 -99 560 -6
155 82 294 292 295 447 0 19 4 40 8 47 6 9 100 13 372 15 364 3 365 3 415 27
63 32 124 93 156 156 20 42 24 64 24 145 0 81 -4 103 -24 145 -50 100 -154
174 -257 183 l-52 4 -5 512 c-5 542 -6 565 -58 726 -109 345 -404 640 -751
750 l-66 21 24 53 c89 195 -22 427 -231 481 -72 18 -103 18 -175 -1z m178
-201 c45 -34 65 -69 70 -125 3 -44 0 -59 -20 -88 -73 -107 -203 -108 -275 -1
-51 75 -15 187 72 227 40 19 119 12 153 -13z m152 -512 c103 -27 250 -95 334
-155 68 -48 186 -169 233 -237 78 -114 143 -282 162 -423 7 -47 11 -281 11
-606 l0 -529 24 -28 c23 -26 30 -28 125 -33 80 -4 106 -10 127 -26 50 -37 68
-70 68 -124 0 -54 -18 -87 -68 -124 -27 -21 -31 -21 -1256 -21 -1225 0 -1229
0 -1256 21 -50 37 -68 70 -68 124 0 54 18 87 68 124 21 16 47 22 126 26 86 4
103 8 122 28 l23 23 6 582 c6 661 6 659 93 843 55 116 91 168 180 262 139 147
303 237 511 282 121 27 313 22 435 -9z m104 -2500 c10 -16 -14 -115 -41 -170
-36 -74 -100 -136 -181 -174 -61 -29 -76 -32 -162 -32 -85 0 -102 3 -160 31
-116 55 -200 164 -219 285 -5 30 -7 57 -4 62 6 10 761 9 767 -2z"/>
<path d="M1095 4841 c-35 -15 -54 -45 -95 -154 -151 -400 -171 -852 -55 -1253
41 -139 104 -292 128 -309 35 -25 90 -19 121 12 36 35 32 74 -19 203 -78 198
-115 405 -115 640 0 238 38 444 120 655 53 135 52 168 -10 200 -32 17 -45 18
-75 6z"/>
<path d="M5835 4839 c-32 -18 -55 -52 -55 -80 0 -14 14 -59 30 -100 85 -205
119 -375 127 -624 8 -270 -25 -474 -113 -699 -20 -50 -38 -107 -41 -126 -9
-68 62 -117 128 -90 70 29 176 362 210 660 14 126 7 386 -15 515 -33 197 -124
477 -169 522 -27 27 -75 37 -102 22z"/>
<path d="M1679 4535 c-28 -15 -61 -85 -92 -195 -66 -230 -62 -524 10 -755 45
-144 69 -175 133 -175 37 0 90 47 90 80 0 11 -15 67 -34 123 -46 137 -60 228
-59 377 1 139 16 227 64 371 29 87 31 100 19 128 -13 33 -55 61 -87 61 -10 -1
-30 -7 -44 -15z"/>
<path d="M5229 4535 c-14 -8 -32 -28 -39 -46 -12 -28 -10 -41 19 -128 50 -150
63 -231 63 -381 0 -149 -15 -241 -63 -381 -16 -48 -29 -96 -29 -108 0 -34 52
-81 90 -81 65 0 89 32 134 180 46 152 59 258 53 435 -6 173 -29 295 -83 429
-35 89 -82 115 -145 81z"/>
</g>
</svg>
