<?xml version="1.0" standalone="no"?>
<!DOCTYPE svg PUBLIC "-//W3C//DTD SVG 20010904//EN"
 "http://www.w3.org/TR/2001/REC-SVG-20010904/DTD/svg10.dtd">
<svg version="1.0" xmlns="http://www.w3.org/2000/svg"
 width="700.000000pt" height="700.000000pt" viewBox="0 0 700.000000 700.000000"
 preserveAspectRatio="xMidYMid meet">

<g transform="translate(0.000000,700.000000) scale(0.100000,-0.100000)"
fill="#000000" stroke="none">
<path d="M605 6481 c-48 -22 -69 -44 -90 -94 -13 -32 -15 -213 -15 -1580 l0
-1544 23 -44 c16 -29 38 -52 68 -69 l44 -25 1170 0 c940 0 1177 3 1207 13 47
17 95 71 105 119 4 21 8 729 8 1573 l0 1535 -25 44 c-17 30 -40 52 -69 68
l-44 23 -1171 0 c-1115 0 -1173 -1 -1211 -19z m2145 -1671 l0 -1310 -935 0
-935 0 0 1310 0 1310 935 0 935 0 0 -1310z"/>
<path d="M3969 6477 c-29 -16 -52 -38 -69 -68 l-25 -44 0 -990 0 -990 25 -44
c17 -30 40 -52 69 -68 l44 -23 1171 0 c1115 0 1173 1 1211 19 48 22 69 44 90
94 13 32 15 157 15 1012 0 855 -2 980 -15 1012 -21 50 -42 72 -90 94 -38 18
-96 19 -1211 19 l-1171 0 -44 -23z m2151 -1102 l0 -745 -935 0 -935 0 0 745 0
745 935 0 935 0 0 -745z"/>
<path d="M3969 3477 c-29 -16 -52 -38 -69 -68 l-25 -44 0 -1365 0 -1365 25
-44 c17 -30 40 -52 69 -68 l44 -23 1171 0 c1115 0 1173 1 1211 19 48 22 69 44
90 94 13 32 15 194 15 1387 0 1193 -2 1355 -15 1387 -21 50 -42 72 -90 94 -38
18 -96 19 -1211 19 l-1171 0 -44 -23z m2151 -1477 l0 -1120 -935 0 -935 0 0
1120 0 1120 935 0 935 0 0 -1120z"/>
<path d="M655 2371 c-61 -10 -106 -41 -132 -90 l-23 -44 0 -796 c0 -751 1
-798 19 -836 22 -48 44 -69 94 -90 32 -13 176 -15 1205 -15 l1169 0 44 23 c29
16 52 38 69 68 l25 44 0 785 c0 432 -4 802 -8 822 -10 47 -50 96 -97 117 -31
14 -149 16 -1180 17 -630 1 -1163 -1 -1185 -5z m2095 -931 l0 -560 -935 0
-935 0 0 560 0 560 935 0 935 0 0 -560z"/>
</g>
</svg>
