<?xml version="1.0" standalone="no"?>
<!DOCTYPE svg PUBLIC "-//W3C//DTD SVG 20010904//EN"
 "http://www.w3.org/TR/2001/REC-SVG-20010904/DTD/svg10.dtd">
<svg version="1.0" xmlns="http://www.w3.org/2000/svg"
 width="700.000000pt" height="700.000000pt" viewBox="0 0 700.000000 700.000000"
 preserveAspectRatio="xMidYMid meet">

<g transform="translate(0.000000,700.000000) scale(0.100000,-0.100000)"
fill="#000000" stroke="none">
<path d="M1965 5725 c-65 -32 -60 122 -65 -1930 l-5 -1870 -23 -59 c-31 -84
-74 -147 -142 -210 -162 -150 -395 -179 -593 -74 -71 38 -175 146 -210 219
-59 122 -57 65 -57 1377 0 1302 3 1238 -52 1276 -29 21 -107 21 -136 0 -55
-38 -52 27 -52 -1286 1 -1306 0 -1297 53 -1426 91 -227 275 -390 518 -459 61
-17 166 -18 2349 -18 2190 0 2287 1 2345 18 173 54 328 182 404 337 76 155 71
18 71 2134 l0 1893 -23 34 c-12 18 -34 39 -47 46 -20 10 -473 13 -2165 13
-1875 0 -2144 -2 -2170 -15z m4165 -2029 c0 -1166 -4 -1822 -10 -1857 -25
-132 -112 -242 -238 -302 l-67 -32 -1938 -3 -1937 -2 46 62 c58 80 97 157 126
250 l23 73 3 1808 2 1807 1995 0 1995 0 0 -1804z"/>
<path d="M2758 4914 c-56 -30 -73 -104 -38 -162 40 -66 -44 -62 1415 -62 1429
0 1371 -2 1409 51 40 58 23 145 -35 174 -43 23 -2710 22 -2751 -1z"/>
<path d="M2775 4270 c-44 -18 -70 -59 -70 -111 0 -42 5 -53 33 -81 l32 -33
431 -3 c371 -2 434 -1 462 13 85 40 89 160 7 209 -25 14 -77 16 -452 15 -232
0 -432 -4 -443 -9z"/>
<path d="M4235 4270 c-11 -4 -31 -20 -45 -35 l-25 -27 -3 -689 c-2 -604 -1
-693 13 -719 32 -62 13 -60 695 -60 l620 0 38 34 37 34 3 689 2 689 -23 35
c-12 18 -34 39 -47 46 -19 10 -166 13 -635 12 -335 0 -619 -4 -630 -9z m1095
-760 l0 -530 -465 0 -465 0 0 530 0 530 465 0 465 0 0 -530z"/>
<path d="M2775 3621 c-62 -26 -93 -113 -60 -169 38 -63 30 -62 500 -62 467 0
469 0 500 60 26 50 19 95 -19 138 l-34 37 -434 2 c-238 1 -442 -2 -453 -6z"/>
<path d="M2773 2965 c-62 -27 -89 -104 -58 -165 31 -60 33 -60 500 -60 470 0
469 0 501 62 20 38 14 101 -13 130 -41 46 -58 48 -490 48 -328 -1 -414 -4
-440 -15z"/>
<path d="M2780 2317 c-66 -23 -98 -104 -65 -167 33 -65 -77 -60 1418 -60 1354
0 1359 0 1388 21 62 44 60 146 -4 191 l-32 23 -1335 2 c-1017 2 -1343 -1
-1370 -10z"/>
<path d="M1323 4430 c-17 -10 -38 -29 -45 -42 -10 -19 -14 -245 -16 -1168 -2
-630 0 -1170 3 -1199 6 -44 14 -62 40 -88 28 -28 40 -33 80 -33 40 0 52 5 80
33 26 26 34 44 40 88 3 29 5 569 3 1199 -2 923 -6 1149 -16 1168 -18 31 -71
62 -107 62 -16 0 -44 -9 -62 -20z"/>
</g>
</svg>
