<?xml version="1.0" standalone="no"?>
<!DOCTYPE svg PUBLIC "-//W3C//DTD SVG 20010904//EN"
 "http://www.w3.org/TR/2001/REC-SVG-20010904/DTD/svg10.dtd">
<svg version="1.0" xmlns="http://www.w3.org/2000/svg"
 width="700.000000pt" height="700.000000pt" viewBox="0 0 700.000000 700.000000"
 preserveAspectRatio="xMidYMid meet">

<g transform="translate(0.000000,700.000000) scale(0.100000,-0.100000)"
fill="#000000" stroke="none">
<path d="M4939 5585 c-185 -18 -352 -38 -371 -44 -72 -24 -123 -106 -116 -187
6 -70 42 -125 104 -154 46 -23 49 -23 193 -11 80 7 157 15 171 18 36 7 -211
-234 -370 -362 -765 -615 -1711 -959 -2760 -1006 -135 -6 -260 -13 -278 -15
-45 -7 -107 -65 -128 -119 -32 -85 7 -185 88 -226 41 -21 50 -22 278 -16 486
13 963 89 1409 227 457 141 855 326 1226 568 268 174 462 330 693 556 127 124
152 145 152 125 1 -79 30 -301 44 -326 51 -100 190 -133 274 -66 20 16 47 50
60 75 l24 47 -37 407 c-40 449 -42 458 -112 511 -33 25 -45 28 -122 30 -47 1
-237 -13 -422 -32z"/>
<path d="M4878 3741 c-47 -15 -85 -49 -107 -94 -21 -43 -21 -49 -21 -1088 0
-998 1 -1046 19 -1079 10 -19 35 -48 55 -65 34 -27 45 -30 110 -30 64 0 77 3
109 28 21 16 46 46 57 67 20 38 20 61 20 1081 0 1042 0 1043 -21 1087 -12 24
-37 54 -59 68 -41 27 -118 39 -162 25z"/>
<path d="M3580 3181 c-57 -18 -91 -44 -117 -89 l-28 -47 0 -755 c0 -415 3
-767 8 -782 10 -38 65 -98 104 -114 82 -35 182 -5 230 68 l28 42 3 755 c2 519
0 768 -8 793 -12 44 -52 93 -89 112 -35 18 -100 27 -131 17z"/>
<path d="M2235 2796 c-41 -18 -92 -77 -105 -123 -8 -26 -10 -212 -8 -598 3
-637 0 -611 87 -666 90 -58 206 -30 259 61 l27 45 3 558 c2 374 -1 571 -8 597
-13 49 -63 108 -107 126 -41 17 -109 17 -148 0z"/>
</g>
</svg>
