<?xml version="1.0" standalone="no"?>
<!DOCTYPE svg PUBLIC "-//W3C//DTD SVG 20010904//EN"
 "http://www.w3.org/TR/2001/REC-SVG-20010904/DTD/svg10.dtd">
<svg version="1.0" xmlns="http://www.w3.org/2000/svg"
 width="700.000000pt" height="700.000000pt" viewBox="0 0 700.000000 700.000000"
 preserveAspectRatio="xMidYMid meet">

<g transform="translate(0.000000,700.000000) scale(0.100000,-0.100000)"
fill="#000000" stroke="none">
<path d="M1820 6289 c-218 -57 -393 -198 -489 -393 -78 -158 -75 -126 -78
-838 -3 -424 0 -651 7 -677 15 -57 84 -117 145 -127 86 -12 164 27 201 103 18
36 19 79 24 673 l5 635 27 57 c50 107 152 184 273 208 44 8 573 10 1980 8
l1920 -3 67 -32 c82 -39 151 -106 186 -181 l27 -57 3 -427 3 -427 -518 -3
-518 -3 -55 -27 c-66 -33 -138 -101 -173 -166 -45 -83 -49 -135 -45 -587 3
-394 4 -423 23 -467 45 -105 118 -178 223 -223 45 -19 73 -20 555 -23 l508 -3
-3 -427 c-3 -427 -3 -427 -27 -475 -37 -76 -104 -142 -179 -179 l-67 -33 -730
-5 c-655 -4 -733 -7 -760 -22 -61 -33 -105 -105 -105 -170 1 -76 64 -157 138
-178 24 -6 280 -10 718 -10 562 0 696 3 768 15 286 50 508 249 598 535 l23 75
0 1625 c0 1826 6 1668 -76 1835 -96 197 -273 339 -493 395 -78 20 -106 20
-2055 19 -1929 0 -1978 -1 -2051 -20z m4300 -2224 l0 -375 -465 0 -465 0 0
375 0 375 465 0 465 0 0 -375z"/>
<path d="M1944 4045 c-965 -148 -1604 -1062 -1408 -2015 43 -209 153 -459 282
-640 127 -179 338 -368 540 -484 399 -229 899 -278 1351 -134 499 159 912 569
1080 1073 63 190 76 277 76 530 0 201 -3 243 -23 332 -47 214 -128 412 -238
581 -252 387 -631 645 -1089 742 -131 28 -436 36 -571 15z m484 -380 c175 -33
349 -105 502 -208 96 -64 273 -241 337 -337 366 -547 291 -1251 -181 -1698
-328 -310 -783 -428 -1222 -317 -495 126 -867 521 -965 1027 -26 135 -26 351
0 486 105 538 517 949 1052 1046 46 9 102 17 124 20 71 7 269 -3 353 -19z"/>
<path d="M2115 3486 c-40 -17 -84 -63 -101 -103 -8 -18 -14 -58 -14 -90 l0
-58 -65 -34 c-125 -64 -236 -208 -265 -342 -7 -32 -11 -92 -8 -137 4 -64 11
-93 40 -153 87 -183 224 -303 419 -369 117 -40 219 -135 219 -204 0 -44 -34
-95 -76 -112 -61 -26 -139 -4 -252 68 -104 68 -198 63 -266 -12 -40 -44 -60
-107 -51 -153 19 -86 76 -140 227 -212 l73 -35 5 -84 c6 -93 26 -134 87 -176
74 -50 191 -30 247 42 25 34 46 110 46 172 0 28 6 33 58 56 125 54 246 218
272 370 18 106 6 176 -48 284 -79 157 -238 293 -407 346 -68 21 -110 47 -157
95 -78 79 -85 124 -27 190 56 64 138 55 283 -31 98 -59 152 -67 221 -34 87 42
126 143 90 236 -21 56 -84 107 -201 166 -83 41 -84 42 -84 78 0 67 -20 143
-46 178 -48 62 -148 89 -219 58z"/>
</g>
</svg>
